<svg xmlns="http://www.w3.org/2000/svg" viewBox="0 0 677 110">
  <defs><style>@font-face{font-family:'Plus Jakarta Sans';font-weight:700;src:url('https://fonts.gstatic.com/s/plusjakartasans/v12/LDIbaomQNQcsA88c7O9yZ4KMCoOg4IA6-91aHEjcWuA_TknNSg.ttf') format('truetype');}</style></defs>
  <g transform="scale(0.1803) translate(133, 0)">
    <path fill="#FFFFFF" fill-rule="evenodd" d="M1.5 303c0 163.63.1 230.56.25 148.75s.14-215.69 0-297.5-.26-14.87-.26 148.75m373.98 7.25-6.97 7.25 7.25-6.97c6.73-6.48 7.7-7.53 6.97-7.53-.15 0-3.41 3.26-7.25 7.25m-13.02 13-3.95 4.25 4.25-3.95c3.95-3.68 4.71-4.55 3.95-4.55-.16 0-2.07 1.91-4.25 4.25"/>
  <path fill="#FFFFFF" fill-rule="evenodd" d="M81.76 67.7c1.25.25 3.05.24 4-.01s-.06-.45-2.26-.44-2.98.22-1.74.46m21 .02c1.8.22 4.5.21 6-.02 1.51-.22.04-.4-3.26-.4s-4.53.2-2.73.41m39.05.03c16.68.15 43.68.15 60 0 16.33-.16 2.68-.28-30.32-.28s-46.35.13-29.68.28M113.48 234.5c0 66 .12 93.15.27 60.33s.15-86.82 0-120-.27-6.33-.27 59.67m65.76-.54-.24 57.46-4.24 4.54-4.23 4.54 4.74-4.52 4.75-4.52-.27-57.48-.27-57.48zM309 216.5c-2.43 2.47-4.2 4.5-3.92 4.5s2.5-2.03 4.92-4.5c2.43-2.47 4.2-4.5 3.92-4.5s-2.5 2.03-4.92 4.5m92.98 67.25L390.5 295.5l11.75-11.48c10.91-10.67 12.2-12.02 11.48-12.02-.14 0-5.43 5.29-11.75 11.75M465.3 292c0 3.02.19 4.26.42 2.75a22 22 0 0 0 0-5.5c-.23-1.51-.42-.27-.42 2.75m67.08 11.5c0 6.6.17 9.17.36 5.71.2-3.46.2-8.86 0-12s-.36-.31-.36 6.29m-146.43-3.75-3.45 3.75 3.75-3.45c2.06-1.9 3.75-3.58 3.75-3.75 0-.76-.85-.04-4.05 3.45m79.3 12.75c.01 2.2.22 2.98.46 1.74.24-1.25.23-3.05-.02-4s-.45.06-.44 2.26m-332.77 24.75-9.98 10.25 10.25-9.98c9.52-9.27 10.7-10.52 9.98-10.52-.15 0-4.76 4.61-10.25 10.25M113.46 452c0 22.27.13 31.39.29 20.25s.16-29.36 0-40.5-.3-2.02-.3 20.25m87.3-21.25c5.64.17 14.86.17 20.5 0s1.03-.33-10.25-.33-15.89.15-10.25.33m-57.43 63c16.95.15 44.4.15 61 0s2.73-.28-30.82-.28-47.13.13-30.18.28m106.43 108.96c1.24.23 3.26.23 4.5 0s.22-.44-2.25-.44-3.49.2-2.25.44"/>
  <path fill="#FFFFFF" fill-rule="evenodd" d="M1.74 303.7 2 602.5l117.75.3c122.44.31 137.8-.05 162.87-3.86 129.63-19.7 233.36-129.63 247.84-262.65 4.02-36.9.39-81.67-9.39-115.84C489.77 111.08 398.64 30.03 285 10.48c-28.32-4.87-25.14-4.77-158-5.19L1.5 4.9zm66.26-.44V539.5l95.75-.6c52.66-.34 97.1-.93 98.75-1.33s8.82-1.86 15.94-3.25c25.95-5.05 58.06-18.5 81.56-34.16 130.74-87.1 142.5-274.85 23.5-374.88a246 246 0 0 0-96-49.73c-29.64-7.7-43.06-8.51-139.25-8.53L68 67zm46-68.51v120.74l17.25-17.1c9.49-9.42 24.11-23.78 32.5-31.92l15.25-14.8V176.78l31.25.46c27.35.4 32.56.73 41.75 2.68 20.23 4.27 39.96 13.28 55.42 25.28l7.35 5.72L214.4 311.2 114 411.5v81.63l68.25-.38c73.72-.42 73.74-.42 96.84-6.27 74.2-18.81 131.93-86.65 139.85-164.34 1.7-16.54.4-52.14-1.88-52.14-.31 0-14.43 13.86-31.36 30.8l-30.78 30.8-1.47 6.3c-7.6 32.6-36.4 65.8-69.94 80.64-20.06 8.87-35.62 11.56-70.63 12.2l-27.63.5 107.06-107.07c103.93-103.93 107.03-107.14 105.9-109.6-2.66-5.85-14.81-22.85-24.02-33.62-31.58-36.94-78.4-60.91-128.61-65.87-6.47-.64-35.54-1.08-71.25-1.08H114z"/>
  </g>
  <g transform="translate(153, 15)">
    <text x="0" y="76" font-family="'Plus Jakarta Sans', sans-serif" font-weight="700" font-size="72" fill="#FFFFFF" letter-spacing="-1">
    <tspan>Digital</tspan><tspan dx="16" fill="#E8EEFF">AI</tspan>
  </text>
  </g>
</svg>